<?xml version="1.0" encoding="utf-8"?>
<!-- Generator: Adobe Illustrator 28.0.0, SVG Export Plug-In . SVG Version: 6.00 Build 0)  -->
<svg version="1.1" id="Layer_1" xmlns="http://www.w3.org/2000/svg" xmlns:xlink="http://www.w3.org/1999/xlink" x="0px" y="0px"
	 viewBox="0 0 256 256" style="enable-background:new 0 0 256 256;" xml:space="preserve">
<style type="text/css">
	.st0{display:none;}
	.st1{display:inline;fill:#FFFFFF;}
	.st2{display:inline;fill:#E9D2C8;}
	.st3{display:inline;fill:#ECE4E1;}
	.st4{display:inline;fill:#CFB3A6;}
	.st5{display:inline;fill:url(#SVGID_1_);}
	.st6{display:inline;fill:#F6EFE1;}
	.st7{display:inline;fill:#C3BCAC;}
	.st8{display:inline;fill:#B0A494;}
	.st9{display:inline;fill:#988064;}
	.st10{display:inline;fill:#9C9178;}
	.st11{display:inline;fill:#F1DCC7;}
	.st12{display:inline;fill:#EFE1C3;}
	.st13{display:inline;fill:#DCBBA2;}
	.st14{display:inline;fill:#C3937E;}
	.st15{display:inline;fill:#D2C8A0;}
	.st16{display:inline;fill:#66342A;}
	.st17{display:inline;fill:#8C6850;}
	.st18{display:inline;fill:#5C3A40;}
	.st19{display:inline;fill:#878786;}
	.st20{display:inline;fill:#B9B5B0;}
	.st21{display:inline;fill:#9F9D9A;}
	.st22{display:inline;fill:#CEC6C1;}
	.st23{display:inline;fill:#523228;}
	.st24{display:inline;fill:#765148;}
	.st25{display:inline;fill:#AA7554;}
	.st26{display:inline;fill:#E5BBAB;}
	.st27{display:inline;fill:#B29586;}
	.st28{display:inline;fill:#9F806C;}
	.st29{display:inline;fill:#82482B;}
	.st30{display:inline;fill:#EBCBA5;}
	.st31{display:inline;fill:#343434;}
	.st32{display:inline;fill:#321E14;}
	.st33{display:inline;fill:#646263;}
	.st34{display:inline;fill:#71706D;}
	.st35{display:inline;fill:#7E6D50;}
	.st36{display:inline;fill:#9A8B7F;}
	.st37{display:inline;fill:#622811;}
	.st38{display:inline;fill:#F4B59B;}
	.st39{display:inline;fill:#48795A;}
	.st40{display:inline;fill:#573E2E;}
	.st41{display:inline;fill:#5A5551;}
	.st42{fill:#FFFFFF;}
	.st43{fill:#ABC6D3;}
	.st44{fill:#F1F6EC;}
	.st45{fill:#343434;}
	.st46{fill:#424741;}
	.st47{fill:#48795A;}
	.st48{fill:#454340;}
	.st49{fill:#A3C5B2;}
	.st50{fill:#4D5B50;}
	.st51{fill:#ACDAC6;}
	.st52{fill:url(#SVGID_00000123443383324941039090000001184996264352626825_);}
	.st53{fill:#F58D72;}
	.st54{fill:url(#SVGID_00000038414458135152977070000007651340539636383649_);}
	.st55{fill:#90281E;}
	.st56{fill:url(#SVGID_00000014616522406089102810000009698865202511236778_);}
	.st57{fill:#CD3C2C;}
	.st58{fill:#F4B59B;}
	.st59{fill:#B23431;}
	.st60{fill:#E75A53;}
</style>
<g>
	<g id="Background_00000034790445117091531230000010000900681667184545_" class="st0">
		<path class="st1" d="M132.15-32.2c49.08,0.02,98.16-0.01,147.25,0c0.01,47.96-0.02,95.92,0,143.88c-1.43-0.98-1.76-4.62-2.76-6.58
			c-1.06-2.08-4.86-6.49-5.2-7.04c-0.08-0.13,0.76,0.24-0.92-2.76c-3.21-2.65-3.46-5.24-3.67-5.51c-0.86-1.12-9.61-11.07-9.49-7.81
			c-0.22-0.41-0.38-0.8-0.61-1.22c-0.03-0.06-0.12-0.39-0.61-1.22c4.38-0.54-2.03-8.56-2.76-13.01
			c-4.47-4.68-8.52-12.43-13.16-15.77c-0.53-1-1.17-1.45-1.22-1.53c-1.03-1.38-1.99-5.16-4.29-1.84c-0.15-0.15-0.15-0.15-0.31-0.31
			c-0.04-4.61-1.83-8.84,0-13.32c-0.05-0.28-1.03-0.85-1.22-1.07c0.48-0.86-4.07-5.73-4.44-5.82c-0.23-0.05-4.13,0.66-4.59,0.61
			c-0.26-0.02-2.31-1.51-2.45-1.53c-2.38-0.33-4.54,2.36-5.82,0.92c-5.93-0.32-11.86-2.23-17.45-4.59
			c-5.32,0.17-9.22,2.08-14.08,3.06c-2.6-0.77-2.6-0.77-5.2-1.53c-8.3,2.14-14.7-4.63-22.96-3.37c-2.35,0.36-14.32,5.95-22.19,5.51
			c-1.27-0.16-2.7-0.66-3.98-0.92c4.39-2.2,9.29-8.17,13.32-11.94c5.1-4.77,10.78-6.65,9.64-11.79c-1-4.51-12.92-4.01-15.61-1.38
			c-0.31-0.56-1.82-1.1-2.76-1.53c-0.54-2.24-4.84-3.5-6.73-5.2c-0.15-1.21,0.46-5.21,0.61-7.35c0.43,0.39,1.19-2.76,1.53-4.44
			C130.92-23.06,131.17-27.71,132.15-32.2z"/>
		<path class="st2" d="M85.62-32.2c-1.1,3.95-6.36,28.92-6.12,30.46c0.66,4.27,12.98,8.91,16.68,10.87
			c3.55,2.16,16.66,13.11,14.54,15.92c-5.49-1.39-22-5.34-26.48-3.06c-0.51,0.26-1.8,2.04-2.14,2.14
			c-1.18,0.34-17.89,0.06-20.82-0.61c-6.41,0.91-12.94,0.74-19.29-0.61c-3.27,0.75-15.75,3.37-17.45,3.37
			c-2.85,0-5.81-2.39-13.32,2.14c-0.1,0.02-0.21-0.02-0.31,0c-0.05,0.01,0.21-0.14-0.92,0c-9.58,1.19-2.46,6.28-2.14,6.73
			c2.51,3.66,2.54,7.2,2.76,11.63c0.18,3.63,0.3,3.08-0.31,6.73c-0.12,0.73-1.21,2.85-0.92,3.83c0.09,0.31,0.8,0,0.92,0.31
			c1.77,4.83,5.35,10.24,4.29,15.61c-0.73,3.68-10.99,7.6-7.81,17.6c0.33,0.06,0.82-0.09,1.07,0c-0.08,0.31-0.08,0.31-0.15,0.61
			c-1.41-0.09-2.75,0.03-4.13,0.31c-0.51,0.1-1.02,0.18-1.53,0.31c-0.18-1.46-2.73,1.63-3.21-1.53c-0.77-0.25-0.26,3.74-1.99,1.22
			c-1.16-1.7-4.12-11.1-5.51-14.23c-5.9-13.32-13.81-25.23-16.53-39.95c-0.32-1.74-0.74-3.44-0.92-5.2
			c-0.52-5.28,2.09-9.06-4.29-8.27c-2.12,0.26-0.23,0.47-0.61,1.07c-0.43,0.68-1.06,0.33-1.22,0.61c-0.09,0.15,0.16,2.12-1.84,2.6
			c0.03-20.2-0.02-40.41,0-60.61C5.82-32.21,45.72-32.17,85.62-32.2z"/>
		<path class="st3" d="M250.31,172.3c-1.62,1.79-3.33,3.07-2.6,3.98c3.5,0.59,13.46,6.91,16.22,5.82c0.52-0.2,0.71-1.64,1.22-1.84
			c0.48-0.18,2.05,0.17,2.76,0c3.82-0.94,7.57-2.22,11.48-2.76c-0.01,17.86,0.03,35.71,0,53.57c-2.52,0.47-4.9,1.42-7.35,2.14
			c-1.65,0.49-3.26,1-4.9,1.53c-0.86,0.28-4.23,0.57-4.59,1.38c-0.84,1.88,1.72,1.05,3.37,0.77c4.3-0.75,9-2.6,13.47-3.06
			c-0.03,15.82,0.02,31.63,0,47.45c-14.29,0.02-28.57-0.03-42.86,0c-0.6-2.47-3.96-1.33-7.19-2.45
			c-1.34-0.46-15.98-9.39-20.51-11.02c-2.79-2.17-1.29-3.5-5.66-4.9c-2.72-0.87-6.29-2.24-5.51,2.14c-0.1-0.08-0.8-0.1-2.14-1.53
			c-0.55-0.59-1.91-2.77-2.45-3.67c0.03-0.14-0.39,0.12,0.31-2.76c0.3-1.24,0.9-1.59,0.92-1.68c0.35-1.54-0.4-2.94-0.31-3.06
			c0.42-0.58,1.76,0.59,1.84-0.92c0.11-2.18-5.83-3.88-7.35-4.59c-0.08-1.85,11.91,3.16,4.59-1.53c1.7-0.06,2.45-1.6,4.13-2.6
			c0.39-0.23,5,0.44,4.44-6.12c0.8-0.03,1.67,0.09,2.45,0c5.1-0.59,13.83-3.85,23.57-3.37c1.05,1.3,0.28,2.95,1.22,5.66
			c1.48,4.23,8.12,5.95,7.19,3.83c1.03-0.09,2.21,0.13,3.21,0c-1.17,2.27,3.16-0.36,6.89-0.61c0.15-0.2,0.41-0.9,0.46-0.92
			c0.14-0.05,0.28-0.67,2.6-1.53c3.95-1.46,10.88-1.39,14.54-5.36c-2.86-11.6-3.98-23.94-9.18-34.9
			c-2.2-25.39-11.7-14.62-14.23-16.07c0.64-1.59,1.54-3.05,2.3-4.59c3.55-7.28,4.36-6.76,9.18-11.94
			C252.36,167.97,249.08,170.81,250.31,172.3z"/>
		<path class="st2" d="M163.37,229.85c2.4,5.26,5.39,10.29,7.65,15.61c0.62,1.46,4.57,10.86,4.59,11.48
			c0.05,1.53-1.24,1.12-3.37,4.44c-1.03,1.6-2.07,3.79-3.06,5.51c-1.3,2.26-2.96,4.24-3.98,6.73c-2.45,3.83-2.45,3.83-4.9,7.65
			c-30.41,0.02-60.82,0.02-91.23,0c3.4-8.31,10.82-25.88,21.58-24.18c0.34-0.17-0.34-0.56-0.15-0.61c0.81-0.24,0.58-0.29,0.61-0.31
			c0.13-0.07,0.79,0.84,1.53-0.15c0.15-0.35-1.01-4.51-1.22-5.36c0.87-0.36,0.74-4.14,1.22-6.89c0.61-3.41,1.57-6.9,2.45-10.26
			c3.29,0.39,8.75,2.73,11.17,2.45c0.39-0.04,3.89-1.81,7.5-2.45c2.6,2.55,8.47,8.66,11.63,7.65c7.11-2.69,14.63-4.01,21.89-6.12
			C152.68,233.49,157.73,230.28,163.37,229.85z"/>
		<path class="st2" d="M-9.28,105.56c-0.26,0.03-0.5-0.52-0.61-0.15c-0.19,0.64,1.58,12.55,1.84,13.16c1.19,2.9,5.75,4.05,8.27,4.44
			c0.46,0.47,3.39,2.93,4.29,3.67c-0.45,11.08-4.15,28.09-4.59,37.65c-6.58,2.45-6.45,12.15-10.1,17.3
			c-1.84,7.34-5.33,12.3-1.22,19.59c1.5,2.66,5.89,7.51,9.18,6.89c-0.05,0.66,0.25,1.36-0.46,1.84c-8.44-0.57-21.89,6.35-25.41,1.84
			c-2.98,0.31-2.98,0.31-5.97,0.61c-0.06-56.53-0.05-113.06,0-169.59c1,0.48,0.17,2.22,0.31,3.21c0.42,3.12,3.33,11.84,4.59,15.31
			C-26.44,68.85-13.65,96.38-9.28,105.56z"/>
		<path class="st2" d="M0.82,213.93c-0.02,0.12-0.64,0.43-0.92,2.3c-0.18,1.17-0.09,4.13,0.31,5.36
			c-6.55,3.81-19.83,4.54-20.51,5.36c-2.12,2.56,16.95,3.05,18.52,2.91c1.13,0.49,0.18,5.4,0.46,6.73c0.99,4.75,6.78,2.06,7.96,1.84
			c0.78-0.15,1.43-0.45,2.14-0.61c14.13-3.17,14.81-4.18,30.92-4.9c-2.25,4.16-9.83,3.2-13.32,10.41
			C14.95,249,15.9,257.76,15.52,258.78c-1.62,4.34-4.45,8.67-5.2,13.16c-2.09,2.77-3.59,6.1-4.9,9.34
			c-13.16-0.03-26.33,0.02-39.49,0c-0.03-1.94,0.04-3.88,0-5.82c2.28-1.07,1.44-5.44,1.22-8.72c-0.08-1.31-0.96-5.42-1.22-6.89
			c-0.07-15.82,0.02-31.63,0-47.45c2.98-0.31,2.98-0.31,5.97-0.61c3.52,4.51,16.97-2.41,25.41-1.84c0.71-0.48,0.41-1.18,0.46-1.84
			c0.06-0.72-0.18-3.09-0.31-3.98c3.23,2.38,2.78,4.38,3.98,7.81C1.63,212.9,0.89,213.51,0.82,213.93z"/>
		<path class="st4" d="M78.88,233.83c0.16,2.19-2.48,5.94-2.45,7.5c0.07,4.05,6.59,9.41,7.35,13.32c-0.16-0.02-1.91-1.59-2.14-1.84
			c-0.38-0.41-0.7-1.7-0.92-1.99c-0.82-1.1-2.49-0.77-0.92-1.53c-2.48,0.01-0.32-0.68-1.68-1.68c-0.16-0.12-3.38-0.72-3.98-0.61
			c-3.27,0.57-5.78,5.96-7.5,8.11c2.96-0.38-0.68,2.54-1.53,4.59c-0.34,0.81-2.69,8.76-3.06,10.26c-0.92,3.71-1.74,7.48-1.84,11.33
			c-18.27-0.01-36.53,0.04-54.8,0c1.31-3.24,2.81-6.57,4.9-9.34c0.75-4.49,3.58-8.83,5.2-13.16c0.38-1.01-0.57-9.77,10.87-15.46
			c3.49-7.2,11.07-6.24,13.32-10.41c2.04-0.09,4.17,0.36,6.12,0.31c-1.6,3.04-16.6,19.37-7.5,20.2c3.64,0.34,12.15-7.07,10.26-10.41
			c0.51-0.48,0.71-1.53,0.92-2.14c0.01-0.03,0.54,0.11,0.61-0.15c0.05-0.19,0.06-3.35,0-3.52c3.21-2.45,3.21-2.45,6.43-4.9
			C61.72,232.18,70.56,233.67,78.88,233.83z"/>
		
			<linearGradient id="SVGID_1_" gradientUnits="userSpaceOnUse" x1="599.3211" y1="312.6778" x2="525.2446" y2="358.2162" gradientTransform="matrix(0.4999 0 0 0.4999 -32.4701 -44.5726)">
			<stop  offset="0" style="stop-color:#D2CBC0"/>
			<stop  offset="1" style="stop-color:#FDF9F0"/>
		</linearGradient>
		<path class="st5" d="M252.15,78.01c-1.52,3.73,1.75,4.05,2.14,6.12c0.09,0.45,0,1.27,0,1.84c0,0.04-0.26-0.02-0.61,0.46
			c2.96,0.03,1.94,1.31,2.14,1.53c4.78,5.2,3.27,7.93,7.04,11.02c0.52,5.72,1.28,2.21,2.76,3.37c0.24,0.19,1.3,3.79,1.53,4.44
			c0.39,1.07,0.38,3.37,2.14,4.29c-0.18,1.36-0.62,1.3-0.61,1.38c0.08,0.66,1.92,0.67,2.76,1.99c0.24,0.39,0.71,2.02,0.31,2.6
			c1.77-0.77,1.28-0.35,3.06,0.77c0.21,0.13,1.21,1.42,1.68,1.53c0.98,0.22,2.04-1.07,2.91,0.31c0,5.41,0,10.82,0,16.22
			c-1.78,0.03-1.57,0.63-1.84,0.92c-1.99,2.14-7.41,10.66-12.86,16.84c-4.05,4.59-8.68,8.68-12.86,13.16
			c-4.82,5.18-5.64,4.66-9.18,11.94c-0.31-0.15-0.31-0.15-0.61-0.31c-0.92-3.38,1.96-5.48,2.14-6.58c0.06-0.37-1.5-2.86,1.53-7.04
			c-4.33-14.01,3.01-10.07,4.59-23.27c0.17-1.41-0.35-2.68-0.31-4.29c0-0.06,0.61-0.86,0.61-0.92c0.02-9.67-4.29-8.03-5.51-15
			c-0.42-2.41-0.78-11.43,0.31-13.78c-4.66-6.18-0.87-18.58-1.53-21.28c2.23-2.37-2.42-5.88-2.45-9.49
			c0.37-0.56,0.54-1.46,1.07-1.84c0.06-0.04,0.92-0.09,1.38-0.31c0.57-0.27,3.28-1.17,3.67-1.22c2.19,0.54-2.55,2.11,1.99,2.45
			C249.75,78.75,251.83,77.84,252.15,78.01z"/>
		<path class="st6" d="M120.21-32.2c0.84,13.2-7.64,32.05,4.44,33.98c2.55,0.41,7.8,0,10.26-0.92c5.41,0.12-6.24,12.05-8.57,15.15
			c-1.08,1.44-3.16,4.38-3.67,5.97c-0.68-0.29-2.17,0.39-3.06-0.31c-0.72-0.56-4.58-15.22-5.2-15.77c-1.32-1.16-2.6,3.81-3.83,3.52
			c-3.64-7.28-8.94-11.16-14.54-16.68c2.32-7.98,3.24-16.63,4.29-24.95C106.94-32.2,113.58-32.19,120.21-32.2z"/>
		<path class="st2" d="M-30.4,24.13c2.14,4.13,2.14,4.13,4.29,8.27c0.18,1.77,0.6,3.46,0.92,5.2c-7.13,0.04-1.36,5.03-0.61,12.7
			c6.03,15.06,16.79,27.46,21.43,43.16c1.12,0.82,0.04-1.92,1.22-1.68c1.73,2.52,1.22-1.47,1.99-1.22c0.48,3.16,3.04,0.07,3.21,1.53
			c-2.65,0.64-5.16,1.26-7.5,2.76c1.07,0.24,2.79,0.59,3.83,0.61c1.14,2.43,2.31,4.88,3.37,7.35c0.34,0.8,0.58,1.66,0.92,2.45
			c0.3,0.72,0.62,1.42,0.92,2.14c3.2,7.62,6.8,15.48,7.35,23.88c-1.74-0.89-4.88-3.3-6.43-4.59c-0.89-0.75-3.83-3.2-4.29-3.67
			c-0.97-1.01-1.88-2.12-2.76-3.21c-2.29-4.72-4.48-9.49-6.73-14.23c-4.37-9.18-17.16-36.71-19.9-44.24
			c-1.26-3.46-4.17-12.18-4.59-15.31c-0.13-1,0.7-2.73-0.31-3.21c0-4.8-0.01-9.59,0-14.39c2-0.48,1.75-2.46,1.84-2.6
			c0.17-0.28,0.79,0.07,1.22-0.61C-30.64,24.6-32.52,24.39-30.4,24.13z"/>
		<path class="st3" d="M276.95,152.4c0.03-0.01-0.11-0.42,0.61-0.31c0.33,1.1,0.52,2.88,1.84,3.06c0,7.45,0,14.9,0,22.35
			c-3.91,0.54-7.66,1.82-11.48,2.76c-0.7,0.17-2.27-0.18-2.76,0c-0.51,0.19-0.71,1.63-1.22,1.84c-2.77,1.1-12.73-5.22-16.22-5.82
			c-0.73-0.91,0.98-2.19,2.6-3.98c1.28-1.41,2.9-2.66,4.29-3.98c-0.32,2.43,6.47,1.09,6.12-0.61c-0.09-0.43-2.5-1.72-3.06-2.14
			c0.87-0.84,1.9-1.6,2.76-2.45c-0.2,6.41,0.55,3.56,1.53-0.15c2.34-0.86,2.04-1.48,2.3-1.68c0.26-0.22,0.66,0.52,0.92,0.31
			c0.31-0.26,0.08-0.86,0.15-0.92c0.44-0.36,0.93,0.02,2.45-2.14c0.08-0.11,0.89,0.34,0.92-2.14c0.85-1.52,2.2-3.3,1.84-4.9
			c1.01-1.45,1.46-1.74,1.53-1.84c1.02,1.24-0.02,1.87,0,1.99c0.08,0.59,1.47,3.99,1.99,4.13
			C276.33,156.39,276.44,154.07,276.95,152.4z"/>
		<path class="st2" d="M100.31-32.2c-1.04,8.32-1.97,16.97-4.29,24.95c5.6,5.52,10.9,9.41,14.54,16.68
			c1.22,0.29,2.51-4.68,3.83-3.52c0.62,0.55,4.49,15.21,5.2,15.77c0.04,1.35-3.25,0.91-3.83,1.22c-0.58,0.32,0.08,0.51-0.77,1.84
			c-6.04-6.49-12.01-13.26-17.14-20.51C96.78,2.71,89.7-7.87,89.6-8.63c2.14-11.79,2.14-11.79,4.29-23.57
			C96.03-32.2,98.17-32.2,100.31-32.2z"/>
		<path class="st3" d="M203.78,281.28c-9.18,0.01-18.37-0.01-27.55,0c-1.04-2.69-1.26-5.42-1.38-8.27
			c-1.08,0.92,0.21,5.51,0.15,8.27c-3.98,0-7.96,0-11.94,0c0.68-2.49,1.16-5.26,2.14-7.65c1.02-2.49,2.68-4.47,3.98-6.73
			c1.88,0.67,2.07-1.44,2.3-1.53c2.7,0.96,3.32,2.51,3.98,0.31c12.97-2.47,11,2.16,17.45,7.96
			C196.14,276.52,202.1,278.98,203.78,281.28z"/>
		<path class="st4" d="M93.88-32.2c-2.14,11.79-2.14,11.79-4.29,23.57c-2.76,0.1-3.2,3.84-2.14,5.97c1.05,2.1,8.01,5.7,10.41,6.89
			c5.13,7.25,11.1,14.02,17.14,20.51c-0.64,1.01-0.65,2.17-1.07,0.92c-0.36,0.57-1.76-0.24-3.21-0.61
			c2.12-2.81-10.99-13.76-14.54-15.92c-3.7-1.95-16.03-6.6-16.68-10.87c-0.24-1.54,5.02-26.51,6.12-30.46
			C88.37-32.2,91.13-32.2,93.88-32.2z"/>
		<path class="st2" d="M83.78,254.64c2.6-0.61,2.6-0.61,5.2-1.22c0.16,0.23,1.68,1.44,2.14,2.76c-0.03,0.02,0.2,0.07-0.61,0.31
			c-9.41-5.05-19.81,17.37-22.04,24.8c-2.76,0-5.51,0-8.27,0c0.1-3.84,0.92-7.62,1.84-11.33c7.66-4.39,12.14-12.29,19.59-17.14
			C81.87,253.06,83.63,254.62,83.78,254.64z"/>
		<path class="st7" d="M125.72-32.2c0.01,3.81-3.06,27.48-1.53,28.93c2.28-0.04,2.15,2.18,2.3,2.3c0.16,0.12,1.04-0.11,1.38,0
			c0.03,0.01-0.1,0.57,0.15,0.61c1.59,0.27,2.94-0.35,3.37-0.31c0.28,0.03,0.03,1.05,5.36,0.61c-0.61,0.15-1.38,0.75-1.84,0.92
			c-2.46,0.92-7.71,1.33-10.26,0.92c-12.08-1.93-3.6-20.78-4.44-33.98C122.05-32.2,123.88-32.2,125.72-32.2z"/>
		<path class="st8" d="M192.15,263.21c1.06,0.02,2.28,0.68,3.37,0.31c1.34,1.43,2.04,1.45,2.14,1.53c2.27,1.84,4.76,3.57,7.65,4.29
			c0.45,2.38,0.74,1.58,2.45,2.76c1.76,1.21,3.7,1.76,5.51,2.76c1.23,0.67,2.46,1.2,3.67,1.84c2.49,1.32,5.06,2.92,7.35,4.59
			c-4.9,0.01-9.8-0.01-14.69,0c-2.3-3.11-6.89-3.73-9.95-6.12c-1.16-0.91-8.88-9.69-9.03-10.71
			C190.29,262.23,190.92,263.19,192.15,263.21z"/>
		<path class="st1" d="M279.4,111.68c0,0.2,0,0.41,0,0.61c-3.65-3.83-4.52,1.63,0,2.14c0,0.51,0,1.02,0,1.53
			c-5.71-1.74-5.09-2.48-6.73-5.51c-2.14-3.96-3.4-8.42-6.12-12.09c0.55-3.11,0.44-5.94-3.37-4.74c-0.63-1.21-1.21-2.49-1.84-3.67
			c1.45,0.01,2.83-1.11,3.83,0.31c0.08-0.23,0.08-0.23,0.15-0.46c-2.6-1.15-2.6-1.15-5.2-2.3c-0.97-1.82-1.78-3.7-2.76-5.51
			c-0.12-3.26,8.63,6.69,9.49,7.81c0.21,0.27,0.46,2.86,3.67,5.51c1.68,3,0.83,2.62,0.92,2.76c0.34,0.55,4.14,4.96,5.2,7.04
			C277.64,107.06,277.96,110.7,279.4,111.68z"/>
		<path class="st9" d="M256.74,80.76c0.23,0.42,0.39,0.81,0.61,1.22c0.97,1.81,1.78,3.69,2.76,5.51c0.42,0.79,0.79,1.63,1.22,2.45
			c0.63,1.19,1.21,2.47,1.84,3.67c1.27,2.46,8.01,15.64,8.57,16.38c0.11,0.15,0.56,0.23,0.92,0.46c1.64,3.03,1.03,3.77,6.73,5.51
			c0,1.22,0,2.45,0,3.67c-0.87-1.37-1.93-0.08-2.91-0.31c-0.48-0.11-1.47-1.4-1.68-1.53c1.98-0.78-0.17-0.83-0.31-1.07
			c-0.12-0.22-0.54-3.83-3.06-2.3c-0.83-1.32-2.67-1.33-2.76-1.99c-0.01-0.07,0.43-0.02,0.61-1.38c0.01-0.06,0.93,0.3,0.61-1.07
			c-0.05-0.21-2.2-3.01-2.76-3.21c-0.23-0.65-1.29-4.25-1.53-4.44c-1.48-1.16-2.24,2.35-2.76-3.37c-3.77-3.09-2.26-5.82-7.04-11.02
			c-0.2-0.22,0.81-1.51-2.14-1.53c0.35-0.48,0.61-0.42,0.61-0.46c3.54,1.17,1.65-2.39,0-1.84c-0.39-2.08-3.66-2.39-2.14-6.12
			c0.91,0.3,2.37,4.46,2.6,4.59C255.82,83.2,255.74,80.5,256.74,80.76z"/>
		<path class="st1" d="M236.54,281.28c-1.22,0-2.45,0-3.67,0c-0.27-0.92-2.49-0.92-2.76,0c-1.43,0-2.86,0-4.29,0
			c-1.19-0.9-5.19-6.29-5.66-6.43c-1.49-0.45-4.83,0.43-3.21,1.84c-1.21-0.64-2.45-1.16-3.67-1.84c0.76-0.44-2.33-4.52-2.6-4.59
			c-1.79-0.5-2.23,1.87-2.91,1.84c-1.71-1.18-2-0.38-2.45-2.76c-0.32-1.69,0.89-3.62-2.14-6.43c4.38,1.4,2.88,2.73,5.66,4.9
			c4.53,1.63,19.17,10.56,20.51,11.02C232.58,279.95,235.94,278.8,236.54,281.28z"/>
		<path class="st9" d="M130.62-32.2c-0.69,6.01-1.7,12.03-2.14,18.06c-0.16,2.13-0.76,6.14-0.61,7.35c0.38,3.12,3.96,3.92,6.73,5.2
			c0.93,0.43,2.44,0.97,2.76,1.53c-0.31,0-0.31,0-0.61,0c-5.33,0.44-5.08-0.58-5.36-0.61c-0.42-0.05-1.77,0.58-3.37,0.31
			c-0.26-0.04-0.12-0.6-0.15-0.61c0.31-0.23,0.31-0.23,0.61-0.46c-6.58-2.92-0.1-21.38-0.92-30.77
			C128.58-32.2,129.6-32.2,130.62-32.2z"/>
		<path class="st2" d="M187.25,264.13c2.05,5.9,7.31,10.38,12.7,13.78c1.33,0.84,4.66,1.69,5.05,3.37c-0.41,0-0.82,0-1.22,0
			c-1.68-2.3-7.65-4.75-10.87-7.65c-6.45-5.8-4.48-10.43-17.45-7.96c-0.66,2.2-1.27,0.65-3.98-0.31c-0.23,0.09-0.42,2.2-2.3,1.53
			c0.99-1.72,2.03-3.91,3.06-5.51c3.31,0.46,6.65,0.32,9.95,0.92C183.82,262.59,186.31,263.91,187.25,264.13z"/>
		<path class="st2" d="M190.62,264.44c0.15,1.03,7.87,9.81,9.03,10.71c3.05,2.39,7.65,3.01,9.95,6.12c-1.53,0-3.06,0-4.59,0
			c-0.4-1.68-3.72-2.53-5.05-3.37c-5.4-3.39-10.66-7.88-12.7-13.78c3.37,0.8,2.21-0.13,2.6-0.31
			C189.92,263.8,190.35,264.49,190.62,264.44z"/>
		<path class="st10" d="M127.56-32.2c0.81,9.38-5.66,27.85,0.92,30.77c-0.31,0.23-0.31,0.23-0.61,0.46c-0.34-0.11-1.22,0.12-1.38,0
			c-0.15-0.11-0.01-2.33-2.3-2.3c-1.53-1.45,1.54-25.12,1.53-28.93C126.33-32.2,126.94-32.2,127.56-32.2z"/>
		<path class="st1" d="M279.4,135.87c0,6.43,0,12.86,0,19.29c-1.32-0.18-1.51-1.96-1.84-3.06c-0.15-0.5-0.19-1.04-0.31-1.53
			c-0.29-1.23-0.49-2.42-0.61-3.67c-0.09-0.89-0.3-1.57-0.31-2.14c-0.02-2.84,0.76-5.22,1.22-7.96
			C277.82,136.5,277.61,135.89,279.4,135.87z"/>
		<path class="st6" d="M90.52,256.48c-0.19,0.05,0.49,0.44,0.15,0.61c-10.76-1.69-18.18,15.88-21.58,24.18c-0.2,0-0.41,0-0.61,0
			C70.71,273.85,81.11,251.43,90.52,256.48z"/>
		<path class="st11" d="M225.82,281.28c-0.51,0-1.02,0-1.53,0c-2.29-1.67-4.86-3.27-7.35-4.59c-1.62-1.41,1.72-2.28,3.21-1.84
			C220.64,274.99,224.63,280.38,225.82,281.28z"/>
		<path class="st12" d="M132.15-32.2c-0.98,4.48-1.23,9.13-2.14,13.62c-0.34,1.68-1.1,4.83-1.53,4.44
			c0.44-6.03,1.45-12.05,2.14-18.06C131.13-32.2,131.64-32.2,132.15-32.2z"/>
		<path class="st13" d="M279.4,232.6c0,0.41,0,0.82,0,1.22c-4.47,0.46-9.17,2.31-13.47,3.06c0.11-1.71,2.14-0.03,1.22-2.14
			c1.64-0.53,3.25-1.04,4.9-1.53C271.42,236.9,276.78,232.24,279.4,232.6z"/>
		<path class="st1" d="M-34.08,275.46c-0.11-5.2,0.02-10.41,0-15.61c0.26,1.46,1.14,5.58,1.22,6.89
			C-32.64,270.02-31.8,274.39-34.08,275.46z"/>
		<path class="st13" d="M279.4,231.07c0,0.51,0,1.02,0,1.53c-2.61-0.36-7.97,4.3-7.35,0.61
			C274.49,232.49,276.87,231.54,279.4,231.07z"/>
		<path class="st10" d="M163.07,281.28c-0.92,0-1.84,0-2.76,0c2.45-3.83,2.45-3.83,4.9-7.65
			C164.23,276.01,163.75,278.78,163.07,281.28z"/>
		<path class="st14" d="M279.4,112.29c0,0.71,0,1.43,0,2.14C274.87,113.92,275.75,108.47,279.4,112.29z"/>
		<path class="st7" d="M176.23,281.28c-0.41,0-0.82,0-1.22,0c0.05-2.75-1.23-7.35-0.15-8.27
			C174.97,275.86,175.19,278.58,176.23,281.28z"/>
		<path class="st15" d="M232.86,281.28c-0.92,0-1.84,0-2.76,0C230.38,280.35,232.6,280.35,232.86,281.28z"/>
		<path class="st2" d="M130.01,25.05c-0.29-0.06-0.63,0.06-0.92,0c0.26-0.75-2.45-0.94-5.05-1.84c-0.94-0.33-1.29-1.19-1.38-1.22
			c0.52-1.59,2.59-4.53,3.67-5.97c2.33-3.1,13.98-15.03,8.57-15.15c0.46-0.17,1.23-0.76,1.84-0.92c0.31,0,0.31,0,0.61,0
			c2.7-2.63,14.61-3.13,15.61,1.38c1.14,5.14-4.54,7.01-9.64,11.79C139.29,16.88,134.4,22.85,130.01,25.05z"/>
		<path class="st1" d="M256.13,79.54c-0.92-1.55-1.42-2.93-1.53-3.06c0.31-0.08,0.31-0.08,0.61-0.15c-1.67-2.09-2.62-4.61-3.98-6.89
			c2.27-1.45,1.47-3.35-1.22-2.14c-1.31-2.16-2.94-4.25-4.29-6.43c-0.5-0.82-1.04-1.63-1.53-2.45c-0.03-0.05,0.07-0.34-0.31-0.31
			c-0.17-0.54-0.14-0.36-0.31-0.61c-1.23-1.84-1.73-0.54-2.14-0.61c-0.03-0.14-0.57-0.6-0.61-0.61c2.55-0.99,0.25-3.88-0.61-5.51
			c4.65,3.33,8.69,11.09,13.16,15.77C254.1,70.98,260.51,79,256.13,79.54z"/>
		<path class="st16" d="M238.99,49.23c0.06,0.08,0.7,0.53,1.22,1.53c0.86,1.63,3.17,4.52,0.61,5.51c-3.43-0.96-7.04-3.01-6.73-7.35
			C236.54,49.08,236.54,49.08,238.99,49.23z"/>
		<path class="st17" d="M254.6,76.48c0.11,0.13,0.61,1.51,1.53,3.06c0.5,0.84,0.58,1.16,0.61,1.22c-1-0.27-0.92,2.44-1.99,1.84
			c-0.23-0.13-1.69-4.29-2.6-4.59c-0.32-0.17-2.4,0.74-2.6-2.14c-4.54-0.34,0.2-1.91-1.99-2.45c0.2-0.03,0.41,0.02,0.61,0
			C250.49,73.24,252.98,74.51,254.6,76.48z"/>
		<path class="st18" d="M238.99,49.23c-2.45-0.15-2.45-0.15-4.9-0.31c0.01-0.12,0.48-1.33,0.61-1.53
			C236.99,44.07,237.96,47.85,238.99,49.23z"/>
		<path class="st6" d="M134.6-1.58c-2.78-1.28-6.35-2.09-6.73-5.2C129.76-5.09,134.06-3.82,134.6-1.58z"/>
		<path class="st3" d="M-25.2,37.6c2.72,14.72,10.63,26.63,16.53,39.95c1.39,3.13,4.35,12.54,5.51,14.23
			c-1.19-0.24-0.11,2.51-1.22,1.68c-4.64-15.7-15.4-28.1-21.43-43.16C-26.56,42.63-32.33,37.64-25.2,37.6z"/>
		<path class="st19" d="M10,28.42c-5.94,7.07,1.09,3.27,5.51,13.78c-0.31-0.08-0.31-0.08-0.61-0.15c0.46,1.53,0.46,1.53,0.92,3.06
			c0.1,1.56-1.45-0.16-0.61,4.59c0.89,5.02,4.95,9.49,5.2,14.69c0.31,0.08,0.31,0.08,0.61,0.15c0.1,2.51,1.34,6.47,0.61,8.88
			c-0.29,0.96-2.72,3.42-3.67,4.29c0.46-1.58,0.27-6.07,1.84-7.19c0.29-1.96-0.6-1.73-0.61-1.84c-1.09-7.93-4.53-12.19-5.2-14.69
			c-0.36-1.34-1.15-10.48-1.68-10.56c-0.35-0.05-0.38,1.08-0.77,0.77c-1.33-1.1,0.67-8.93-3.67-9.03C7.55,34.69,0.43,29.61,10,28.42
			z"/>
		<path class="st20" d="M14.9,78.93c-0.66,0.25-1.67,0.34-1.07,1.22c1.77-1.13-1,1.66-1.07,1.99c-0.04,0.2,0.42,1.21,0.31,4.13
			c-0.24,0.77-2.63,0.21-2.76,0.46c-0.1,0.2,0.24,1.9-0.31,4.44c-0.9-0.08-1.13,0.05-2.14-0.31c-0.99-9.73,5.05-12.6,6.43-14.85
			c4.84-7.89-2.66-14.86-3.98-22.5c0.61-3.65,0.48-3.1,0.31-6.73c2.54-0.82,0.8,1.86,1.84,6.58c0.79,3.57,5.45,10.75,5.82,15.61
			C18.69,74.6,15.63,76.07,14.9,78.93z"/>
		<path class="st21" d="M17.96,77.7c-0.03,0.09,0.03,0.21,0,0.31c-2.55,1.48-2.91,0.86-3.06,0.92c0.73-2.86,3.79-4.33,3.37-9.95
			c-0.37-4.87-5.03-12.04-5.82-15.61c-1.04-4.72,0.7-7.41-1.84-6.58c-0.22-4.43-0.25-7.97-2.76-11.63c4.34,0.1,2.35,7.93,3.67,9.03
			c0.38,0.32,0.42-0.82,0.77-0.77c0.53,0.08,1.32,9.22,1.68,10.56c0.67,2.5,4.12,6.76,5.2,14.69c0.02,0.11,0.9-0.12,0.61,1.84
			C18.23,71.63,18.43,76.13,17.96,77.7z"/>
		<path class="st22" d="M7.86,90.87c-0.25-0.09-0.75,0.06-1.07,0c-3.19-10,7.08-13.92,7.81-17.6c1.06-5.37-2.51-10.78-4.29-15.61
			c-0.11-0.31-0.83,0-0.92-0.31c-0.29-0.98,0.8-3.09,0.92-3.83c1.32,7.64,8.82,14.61,3.98,22.5C12.91,78.26,6.88,81.13,7.86,90.87z"
			/>
		<path class="st23" d="M10,91.17c0.3,0.03,0.61-0.02,0.92,0c1.92,0.73,0.88,3.32,1.38,3.67c0.57,0.41,2.22-0.51,2.91,0.31
			c-0.61,0-0.61,0-1.22,0s-0.61,0-1.22,0c-1.38,0-1.38,0-2.76,0c-1.43,0-2.86,0-4.29,0c-1.07-1.68-1.07-1.68-2.14-3.37
			c1.38-0.28,2.73-0.39,4.13-0.31c0.08-0.31,0.08-0.31,0.15-0.61C8.88,91.22,9.1,91.09,10,91.17z"/>
		<path class="st24" d="M3.58,91.78c1.07,1.68,1.07,1.68,2.14,3.37c-1.22,0-2.45,0.01-3.67,0c-2.5-0.02-3.49,0.31-3.67,0.31
			c-1.04-0.02-2.76-0.37-3.83-0.61c2.34-1.49,4.85-2.12,7.5-2.76C2.56,91.97,3.07,91.89,3.58,91.78z"/>
		<path class="st1" d="M-26.12,32.4c-2.14-4.13-2.14-4.13-4.29-8.27C-24.03,23.34-26.64,27.11-26.12,32.4z"/>
		<path class="st1" d="M242.66,178.72c-0.75,1.54-1.66,3-2.3,4.59c2.53,1.45,12.03-9.32,14.23,16.07c5.21,10.96,6.32,23.3,9.18,34.9
			c-3.66,3.97-10.59,3.89-14.54,5.36c-2.32,0.86-2.46,1.48-2.6,1.53c-1.32,0.24-2.89-0.54-3.67-0.61c-2.6-4.29-2.6-4.29-5.2-8.57
			c0.55-0.11,3.85-0.89,3.98-1.07c-0.51-2.57,6.72-10.37,7.04-11.63c0.85-12.77-2.89-15.64-3.06-24.49c-2.8-7.54-6.53-4.6-7.04-9.18
			c-0.38-3.42,0.69-5.22,3.37-7.19C242.35,178.57,242.35,178.57,242.66,178.72z"/>
		<path class="st2" d="M171.95,230.46c10.4,1.49,19.02,6.59,29.69,6.12c0.56,6.56-4.05,5.89-4.44,6.12c-1.68,1-2.43,2.54-4.13,2.6
			c7.32,4.69-4.67-0.32-4.59,1.53c1.52,0.71,7.46,2.41,7.35,4.59c-0.07,1.51-1.42,0.34-1.84,0.92c-0.09,0.12,0.65,1.52,0.31,3.06
			c-0.02,0.09-0.62,0.44-0.92,1.68c-3.07-0.89-10-3.05-12.4-4.29c-3.76-1.93-6.35-5.26-9.95-7.35c-2.27-5.33-5.25-10.35-7.65-15.61
			C166.51,229.6,168.94,230.03,171.95,230.46z"/>
		<path class="st2" d="M193.37,257.09c-0.7,2.87-0.28,2.62-0.31,2.76c-0.23,1.1-1.09,2.14-0.92,3.37c-1.23-0.03-1.86-0.98-1.53,1.22
			c-0.27,0.05-0.7-0.64-0.77-0.61c-0.39,0.18,0.77,1.11-2.6,0.31c-0.94-0.22-3.43-1.54-5.05-1.84c-3.3-0.6-6.64-0.46-9.95-0.92
			c2.13-3.32,3.41-2.9,3.37-4.44c-0.02-0.62-3.97-10.02-4.59-11.48c3.59,2.09,6.19,5.42,9.95,7.35
			C183.38,254.04,190.3,256.2,193.37,257.09z"/>
		<path class="st8" d="M236.23,231.99c2.51,10.2,2.93,8.23,6.73,8.57c0.78,0.07,2.36,0.85,3.67,0.61c-0.05,0.02-0.31,0.72-0.46,0.92
			c-3.72,0.25-8.06,2.88-6.89,0.61c0.78-0.1,1.5-0.39,2.3-0.31c0-0.31,0-0.31,0-0.61c-0.98,0.37-5.95,0.16-5.51-0.92
			c-5.1,1.46-4.12-5.17-6.28-7.96C231.94,232.55,234.11,232.37,236.23,231.99z"/>
		<path class="st2" d="M260.42,163.11c-0.86,0.85-1.89,1.61-2.76,2.45c-0.62,0.6-1.22,1.25-1.84,1.84
			c-0.06,0.05-0.43,0.16-1.22,0.92c-1.38,1.32-3.01,2.57-4.29,3.98c-1.24-1.49,2.04-4.33,1.53-5.51c4.17-4.48,8.81-8.58,12.86-13.16
			c-0.1,3.5-4.47,7.36-4.59,7.81C259.91,162.14,260.43,162.56,260.42,163.11z"/>
		<path class="st2" d="M229.8,232.91c2.15,2.79,1.18,9.42,6.28,7.96c-0.44,1.08,4.53,1.29,5.51,0.92c0,0.31,0,0.31,0,0.61
			c-0.8-0.08-1.52,0.21-2.3,0.31c-1.01,0.13-2.18-0.09-3.21,0c0.93,2.12-5.72,0.41-7.19-3.83c-0.95-2.71-0.17-4.36-1.22-5.66
			C228.73,233.06,228.73,233.06,229.8,232.91z"/>
		<path class="st3" d="M203.17,262.91c3.03,2.81,1.82,4.74,2.14,6.43c-2.89-0.72-5.38-2.45-7.65-4.29
			C196.88,260.67,200.45,262.04,203.17,262.91z"/>
		<path class="st2" d="M267.15,234.74c0.91,2.11-1.11,0.43-1.22,2.14c-1.65,0.29-4.2,1.11-3.37-0.77
			C262.92,235.31,266.29,235.02,267.15,234.74z"/>
		<path class="st25" d="M195.52,263.52c-1.09,0.38-2.31-0.28-3.37-0.31c-0.17-1.22,0.68-2.26,0.92-3.37
			C193.61,260.75,194.97,262.93,195.52,263.52z"/>
		<path class="st2" d="M95.11,233.52c-0.88,3.36-1.84,6.84-2.45,10.26c-0.49,2.74-0.36,6.53-1.22,6.89
			c-1.43-5.63-4.14-11.17-3.98-17.14C90.19,233.47,92.31,233.19,95.11,233.52z"/>
		<path class="st2" d="M10.92,131.27c0.79,12.01-7.93,30.98-0.92,34.75c-0.27,0.42-1.51-0.38-1.22,1.07
			c-6.73,1.2-9.19,4.11-8.88-2.76c0.44-9.56,4.15-26.57,4.59-37.65C6.04,127.97,9.18,130.38,10.92,131.27z"/>
		<path class="st4" d="M-0.1,164.34c-0.32,6.86,2.15,3.96,8.88,2.76c3.69-0.66,3.49,0.04,3.67,0c-2.86,3.18-6.82,4.54-9.8,7.5
			c0.36,0.24,0.41,0.72,0.31,1.07c-1.44,0.12-0.43,2.4-1.53,1.53c0.48-2.2,0.57-10.79-3.52-8.57c-1.33,0.72-6.42,15.68-5.66,19.44
			c1.99,2.82,4.77,12.86,5.2,16.07c0.12,0.89,0.36,3.26,0.31,3.98c-3.29,0.63-7.69-4.23-9.18-6.89c-4.11-7.29-0.62-12.25,1.22-19.59
			C-6.55,176.49-6.68,166.78-0.1,164.34z"/>
		<path class="st4" d="M-9.28,105.56c2.25,4.74,4.44,9.51,6.73,14.23c0.88,1.09,1.78,2.21,2.76,3.21c-2.51-0.39-7.07-1.54-8.27-4.44
			c-0.25-0.62-2.03-12.53-1.84-13.16C-9.78,105.04-9.54,105.59-9.28,105.56z"/>
		<path class="st21" d="M13.98,168.93c-2.74,1.86-1.65,2.1-1.84,2.3c-3.66,4-3.19,5.06-4.59,5.51c-0.06,4.36-2.34,4.47-2.45,4.9
			c0.26,5.34,1.54,6.26,2.14,8.11c-1.62,2.48,0.93,5.78,1.22,8.11c0.34,2.71-0.35,8.96,0.31,11.33c0.13,0.47,1.87,3.74,1.53,1.07
			c0.15,1.13,2.19,5.66,0.15,11.63c-0.23-0.38-0.23-0.38-0.46-0.77c-0.31,2.07-0.31,2.07-0.61,4.13c-0.66,0.49-1.22,0.99-1.84,1.53
			c-2.48,2.19-5.81,5.88-4.29,9.34c0.83,1.89,3.75,1.44,3.37,2.3c-1.18,0.22-6.97,2.91-7.96-1.84c1.17,0.21,0.34-1.57,0.61-2.6
			c0.52-1.99,2.96-4.79,3.37-7.96c0.18-1.37,0.23-6.66-0.61-6.28c1.55-2.98-0.49-0.86-0.31-4.59c0-0.08,0.22-0.3,0.31-1.53
			c0-0.03,0.59,0.1,0.61-0.15c1.12-16.15-2.41-21.01-2.76-24.18c-0.47-4.27,1.07-6.41,0.61-8.27c2.42-2.09,2.1-4.16,2.45-5.36
			c0.1-0.35,0.05-0.83-0.31-1.07c2.97-2.96,6.93-4.32,9.8-7.5c0.4-0.08,0.73,0.09,1.22-0.31C13.83,167.86,13.83,167.86,13.98,168.93
			z"/>
		<path class="st2" d="M1.43,177.19c-0.18,0.85-0.2,2.34-0.92,1.38c-0.44,2.84-3.73,3.85-3.67,7.96c2.56,8.86,3.5,18.05,5.2,27.09
			c-0.09,1.23-0.3,1.45-0.31,1.53c-0.46-0.61-0.46-0.61-0.92-1.22c0.07-0.42,0.81-1.03,0.61-1.99c-1.2-3.43-0.75-5.43-3.98-7.81
			c-0.44-3.21-3.21-13.26-5.2-16.07c-0.75-3.76,4.33-18.72,5.66-19.44C2,166.4,1.91,174.99,1.43,177.19z"/>
		<path class="st4" d="M-1.32,236.58c-0.28-1.34,0.67-6.24-0.46-6.73c-1.58,0.14-20.64-0.35-18.52-2.91
			c0.68-0.82,13.96-1.55,20.51-5.36c0.1-0.06,0.95-0.19,1.07-0.31c0.79-0.78,0.73-1.45,0.77-1.53c0.84-0.39,0.79,4.9,0.61,6.28
			c-0.41,3.17-2.84,5.97-3.37,7.96C-0.98,235.01-0.16,236.79-1.32,236.58z"/>
		<path class="st11" d="M1.74,215.15c-0.19,3.73,1.86,1.61,0.31,4.59c-0.04,0.08,0.02,0.75-0.77,1.53
			c-0.12,0.12-0.97,0.25-1.07,0.31c-0.4-1.23-0.48-4.19-0.31-5.36c0.28-1.86,0.9-2.17,0.92-2.3C1.28,214.54,1.28,214.54,1.74,215.15
			z"/>
		<path class="st26" d="M81.64,252.81c-7.45,4.85-11.93,12.75-19.59,17.14c0.37-1.49,2.72-9.44,3.06-10.26
			c0.85-2.05,4.49-4.97,1.53-4.59c1.72-2.15,4.23-7.54,7.5-8.11c0.6-0.1,3.82,0.49,3.98,0.61c1.36,1.01-0.79,1.69,1.68,1.68
			c-1.57,0.76,0.1,0.43,0.92,1.53C80.93,251.1,81.26,252.39,81.64,252.81z"/>
		<path class="st27" d="M84.39,234.13c-1,7.64,0.25,13,4.59,19.29c-2.6,0.61-2.6,0.61-5.2,1.22c-0.76-3.91-7.28-9.27-7.35-13.32
			c-0.03-1.56,2.6-5.31,2.45-7.5C80.69,233.86,82.54,234.13,84.39,234.13z"/>
		<path class="st27" d="M48.27,233.21c-0.73,2.12,0.45,2.22,0.92,3.37c-2.77-0.48-4.8,2.77-4.29,5.2c-0.17,0.17-2.86,1.58-3.06,3.52
			c-0.43,4.12,3.7-0.1,5.36-0.15c0.25-0.17-0.41-1.47-0.46-1.53c0.75,0.14,1.31-0.12,1.84-0.61c1.89,3.34-6.61,10.74-10.26,10.41
			c-9.1-0.84,5.9-17.16,7.5-20.2C46.64,233.19,47.45,233.23,48.27,233.21z"/>
		<path class="st1" d="M56.54,232.3c-3.21,2.45-3.21,2.45-6.43,4.9c-0.02-0.05-0.9-0.56-0.92-0.61c-0.47-1.14-1.65-1.25-0.92-3.37
			C51.11,233.17,53.57,232.36,56.54,232.3z"/>
		<path class="st11" d="M49.5,240.87c-0.21,0.61-0.41,1.66-0.92,2.14c-0.52,0.5-1.09,0.75-1.84,0.61c-0.12-0.16-1.55-0.47-1.84-1.84
			C46.39,240.26,48.91,236.09,49.5,240.87z"/>
		<path class="st28" d="M49.19,236.58c0.02,0.05,0.9,0.56,0.92,0.61c0.06,0.17,0.05,3.33,0,3.52c-0.07,0.26-0.6,0.12-0.61,0.15
			c-0.59-4.78-3.11-0.61-4.59,0.92C44.39,239.35,46.42,236.1,49.19,236.58z"/>
		<path class="st4" d="M276.33,144.74c-1.24-3.45-3.4,3.58-4.29,4.9c-0.07,0.1-0.52,0.39-1.53,1.84c-1.44,2.06-3.6,5.24-5.2,7.04
			c-1.44,1.62-3.35,3.05-4.9,4.59c0.02-0.55-0.5-0.97-0.31-1.68c0.12-0.45,4.49-4.31,4.59-7.81c5.45-6.17,10.87-14.69,12.86-16.84
			C277.1,139.53,276.31,141.9,276.33,144.74z"/>
		<path class="st29" d="M246.64,69.74c-1.14,1.24,1.76,2.23,1.53,3.67c-0.2,0.02-0.41-0.03-0.61,0c-0.4,0.06-3.1,0.96-3.67,1.22
			c-0.85-0.93-0.52-1.66-0.61-3.06c1.07-0.92,1.07-0.92,2.14-1.84C245.47,69.76,246.58,69.75,246.64,69.74z"/>
		<path class="st1" d="M243.88,86.27c-2.73-6.04-5.14-5.46-2.45-9.49C241.46,80.39,246.11,83.91,243.88,86.27z"/>
		<path class="st10" d="M274.8,117.8c-1.78-1.11-1.29-1.53-3.06-0.77c0.41-0.58-0.06-2.22-0.31-2.6c2.52-1.53,2.94,2.08,3.06,2.3
			C274.64,116.98,276.78,117.03,274.8,117.8z"/>
		<path class="st10" d="M269.29,111.07c-1.76-0.91-1.76-3.21-2.14-4.29c0.55,0.2,2.71,3.01,2.76,3.21
			C270.22,111.37,269.3,111.01,269.29,111.07z"/>
		<path class="st9" d="M254.29,85.97c0-0.56,0.09-1.38,0-1.84C255.94,83.57,257.84,87.14,254.29,85.97z"/>
		<path class="st22" d="M11.84,107.7c5.93,3.86,2.48,24,3.37,30.77c0.23,0.69,1.04-0.47,1.07,1.68c2.62-1.21,5.39,1.89,7.81,2.91
			c-1.19,0.36-2.16,0.54-2.14,1.84c0.03,1.98,1.49,1.13,1.84,1.53c3.81,4.48,4.69,8.1,3.37,13.93c-2.89,1.22-8.2,4.57-13.47,6.43
			c-0.49,0.4-0.82,0.23-1.22,0.31c-0.18,0.04,0.02-0.66-3.67,0c-0.28-1.45,0.96-0.65,1.22-1.07c-7.02-3.76,1.7-22.73,0.92-34.75
			c-0.55-8.4-4.15-16.26-7.35-23.88c2.98-0.44,4.16,2.07,5.05,1.84c0.59-2.3-2.47-2.11-2.3-3.98c4.81,0.37,2.19,1.49,3.83,2.45
			C10.25,107.76,11.04,107.18,11.84,107.7z"/>
		<path class="st20" d="M2.05,95.15c1.38,3.52,1.38,3.52,2.76,7.04c-1.01,0.17-2.12,0.15-3.06,0.61c-1.06-2.47-2.22-4.91-3.37-7.35
			C-1.44,95.46-0.46,95.13,2.05,95.15z"/>
		<path class="st28" d="M7.25,101.89c-0.16,3.11,1.81,2.99,4.29,3.37c0.3,0.05,0.62-0.04,0.92,0c-0.31,1.22-0.31,1.22-0.61,2.45
			c-0.8-0.52-1.59,0.05-1.68,0c-1.64-0.96,0.98-2.08-3.83-2.45c-1.21-0.09-2.46,0.07-3.67,0c-0.33-0.79-0.58-1.65-0.92-2.45
			c0.95-0.46,2.05-0.44,3.06-0.61C5.65,102.05,6.41,101.99,7.25,101.89z"/>
		<path class="st4" d="M6.33,105.25c-0.17,1.87,2.88,1.68,2.3,3.98c-0.89,0.24-2.07-2.27-5.05-1.84c-0.3-0.72-0.62-1.43-0.92-2.14
			C3.87,105.32,5.12,105.16,6.33,105.25z"/>
		<path class="st4" d="M276.33,144.74c0,0.57,0.22,1.25,0.31,2.14c-1.51-1.31-1.08,0.41-1.22,0.61c-2.34,3.16-1.26,5.35,1.53,4.9
			c-0.51,1.67-0.62,3.99-2.91,3.37c-0.52-0.14-1.91-3.54-1.99-4.13c-0.02-0.12,1.02-0.75,0-1.99
			C272.94,148.32,275.1,141.29,276.33,144.74z"/>
		<path class="st1" d="M268.68,156.38c-0.38,0.68-1.08,1.22-0.92,2.14c-1.51,2.16-2.01,1.78-2.45,2.14c0-1.07,0-1.07,0-2.14
			c1.6-1.8,3.76-4.99,5.2-7.04C270.89,153.07,269.53,154.86,268.68,156.38z"/>
		<path class="st22" d="M265.31,160.66c-0.07,0.06,0.16,0.66-0.15,0.92c-0.26,0.22-0.65-0.52-0.92-0.31
			c-0.25,0.21,0.04,0.82-2.3,1.68c-0.98,3.71-1.73,6.56-1.53,0.15c1.55-1.54,3.45-2.97,4.9-4.59
			C265.31,159.59,265.31,159.59,265.31,160.66z"/>
		<path class="st4" d="M260.72,167.7c0.35,1.7-6.44,3.04-6.12,0.61c0.79-0.76,1.17-0.87,1.22-0.92
			C257.79,167.99,258.66,168.59,260.72,167.7z"/>
		<path class="st4" d="M260.72,167.7c-2.06,0.89-2.93,0.29-4.9-0.31c0.61-0.58,1.22-1.24,1.84-1.84
			C258.22,165.99,260.63,167.27,260.72,167.7z"/>
		<path class="st27" d="M277.25,150.56c0.11,0.49,0.16,1.03,0.31,1.53c-0.72-0.11-0.58,0.3-0.61,0.31c-2.79,0.45-3.87-1.74-1.53-4.9
			C274.92,149.37,275.46,152.98,277.25,150.56z"/>
		<path class="st1" d="M267.76,158.52c-0.17-0.92,0.54-1.47,0.92-2.14C268.65,158.86,267.84,158.41,267.76,158.52z"/>
		<path class="st27" d="M89.6-8.63c0.1,0.76,7.19,11.33,8.27,12.86c-2.4-1.18-9.36-4.78-10.41-6.89C86.4-4.79,86.83-8.52,89.6-8.63z
			"/>
		<path class="st11" d="M213.27,274.85c-1.82-0.99-3.75-1.55-5.51-2.76c0.68,0.03,1.12-2.34,2.91-1.84
			C210.94,270.33,214.04,274.41,213.27,274.85z"/>
		<path class="st30" d="M272.66,110.46c-0.36-0.23-0.8-0.31-0.92-0.46c-0.56-0.74-7.3-13.92-8.57-16.38
			c3.8-1.19,3.92,1.64,3.37,4.74C269.26,102.04,270.52,106.5,272.66,110.46z"/>
		<path class="st2" d="M261.33,89.95c-0.43-0.81-0.8-1.66-1.22-2.45c2.6,1.15,2.6,1.15,5.2,2.3c-0.08,0.23-0.08,0.23-0.15,0.46
			C264.16,88.83,262.78,89.96,261.33,89.95z"/>
		<path class="st27" d="M276.64,146.89c0.13,1.25,0.33,2.44,0.61,3.67c-1.79,2.42-2.33-1.19-1.84-3.06
			C275.56,147.3,275.13,145.58,276.64,146.89z"/>
		<path class="st19" d="M15.82,107.4c2.48,3.81,1.82,5.67,3.06,5.66c-1.23,0.35-0.05,2.9,0,3.98c0.26,5.28-1.22,7.83,0.31,8.72
			c-0.38,4.43-0.59,8.89,0,13.32c0.47,0.92,7.12,3.5,9.18,5.05c0.44,1.52-2.17-0.38-1.53,2.3c0.05,0.19,0.51,0.92,0.92,1.07
			c0.15,0.59,0.25,1.14,0.77,1.53c1.7-1.74,0.44,0.93,0.46,1.07c0.4,3.13,1.78,5.44,0.31,9.95c-0.63,0.37-0.88,0.28-0.92,0.31
			c-0.04-1.28-0.64-0.25-1.22,0c1.32-5.83,0.45-9.45-3.37-13.93c-0.34-0.4-1.81,0.45-1.84-1.53c-0.02-1.3,0.95-1.48,2.14-1.84
			c-2.42-1.02-5.19-4.12-7.81-2.91c-0.03-2.15-0.84-0.99-1.07-1.68c-0.89-6.77,2.56-26.91-3.37-30.77c0.31-1.22,0.31-1.22,0.61-2.45
			c0.82,0.11,1.76-0.07,2.6,0C15.3,105.42,14.89,105.96,15.82,107.4z"/>
		<path class="st31" d="M20.11,106.17c1.16,1.25,2.28,4.61,3.06,6.28c-0.15,4.9-0.15,4.9-0.31,9.8c-4.46,2.28-0.26,8.78-1.22,16.22
			c12.03,4.75,11.43,5,13.47,18.06c-0.24,0.69-2.43,1.58-3.06,1.99c0.21-4.94,0.67-11.12-3.67-14.39c-2.07-1.56-8.72-4.14-9.18-5.05
			c-0.59-4.43-0.38-8.88,0-13.32c0.12-1.36,0.82-2.55,1.22-3.83c0.49-5.59-0.86-10.92-1.84-16.38
			C19.52,105.72,18.81,104.77,20.11,106.17z"/>
		<path class="st31" d="M17.35,167.4c-1.56,1.68-3.91,3.03-4.9,4.44c-0.33,0.47-4.5,9.85-4.59,10.41
			c-0.87,5.15,2.84,6.92,3.67,10.41c1.65,6.94-2.51,11.27,2.45,19.59c-1.68,14.74,1.21,8.63-4.59,13.01
			c0.31-2.07,0.31-2.07,0.61-4.13c0.23,0.38,0.23,0.38,0.46,0.77c2.03-5.97-0.01-10.5-0.15-11.63c-0.26-2.06-0.9-3.05-0.92-3.21
			c-0.4-3.03,0.41-9.05,0-11.94c-0.25-1.75-1.61-3.72-2.14-5.36c-0.6-1.85-1.88-2.77-2.14-8.11c0.11-0.43,2.39-0.54,2.45-4.9
			c1.4-0.45,0.93-1.51,4.59-5.51c0.18-0.2-0.9-0.44,1.84-2.3C14.14,168.82,14.63,169.17,17.35,167.4z"/>
		<path class="st32" d="M20.11,106.17c-1.3-1.4-0.59-0.45-1.53-0.61c-0.17-0.03-0.8-0.5-2.45-0.31c2.68-0.57,0.4-2.54,0.31-3.52
			c-0.06-0.63,0.86-0.18,0.61-1.53c-0.05-0.26-1.66-4.85-1.84-5.05c-0.69-0.81-2.33,0.1-2.91-0.31c-0.5-0.35,0.54-2.94-1.38-3.67
			c0.6,0.03,1.23,0.02,1.84,0c1.64-0.07,3.65,0.21,3.98-0.92c-0.12,1.47-0.81,2.63-0.61,4.13C16.52,97.44,23.34,103.28,20.11,106.17
			z"/>
		<path class="st33" d="M17.96,78.01c-4.06,4.15-0.93,5.38-0.61,8.72c0.15,1.63-0.52,2.36-0.61,3.52c-0.33,1.13-2.34,0.85-3.98,0.92
			c-0.4-1.86,0.25-3.52,0.31-4.9c0.11-2.92-0.35-3.93-0.31-4.13c0.07-0.33,2.84-3.12,1.07-1.99c-0.6-0.89,0.41-0.98,1.07-1.22
			C15.05,78.87,15.42,79.49,17.96,78.01z"/>
		<path class="st34" d="M32.05,158.52c-0.89,0.58-1.84,0.99-2.76,1.53c1.48-4.51,0.09-6.82-0.31-9.95
			c-0.02-0.15,1.24-2.81-0.46-1.07c-0.52-0.39-0.62-0.94-0.77-1.53c0.37,0.14,0.5,0.46,0.61,0.15c0.46-1.32-1.34-3.06-0.61-0.15
			c-0.41-0.15-0.87-0.88-0.92-1.07c-0.64-2.67,1.97-0.78,1.53-2.3C32.71,147.4,32.26,153.58,32.05,158.52z"/>
		<path class="st18" d="M243.88,58.11c0.02,0.06-0.86,0.89,0.31,0.31c0.49,0.82,1.03,1.63,1.53,2.45c-4.29-0.61,0.17,5.71,1.84,8.27
			c-0.05,0.02-0.36,0.52-0.92,0.61c-0.06,0.01-1.17,0.02-1.22,0c-1.53-0.55-1.88-2.84-2.76-3.98c-0.19-2.42-1.57-4.35,0.92-8.27
			C243.75,57.75,243.71,57.57,243.88,58.11z"/>
		<path class="st35" d="M237.76,231.99c2.6,4.29,2.6,4.29,5.2,8.57c-3.81-0.34-4.23,1.63-6.73-8.57
			C237.66,231.73,237.69,232,237.76,231.99z"/>
		<path class="st36" d="M28.37,160.36c-2.49,1.48-8.17,4.65-9.8,6.12c-0.63-0.17-0.64,0.3-0.92,0.61c-0.08,0.09-0.2,0.19-0.31,0.31
			c-2.73,1.77-3.21,1.43-3.37,1.53c-0.15-1.07-0.15-1.07-0.31-2.14c5.27-1.86,10.58-5.21,13.47-6.43
			C27.73,160.11,28.33,159.07,28.37,160.36z"/>
		<path class="st33" d="M22.25,61.48c0.28,1.38-0.38,9.67,1.84,9.64c-0.82,1.06-1.82,0.12-1.53,1.99c-0.29,0.17-0.54,0.38-0.92,0.31
			c0.73-2.41-0.52-6.37-0.61-8.88c-0.05-1.34-0.3-3.11,0.77-3.98C21.97,61.64,22.24,61.43,22.25,61.48z"/>
		<path class="st33" d="M24.39,71.27c-0.64,0.64-1.01,1.35-1.84,1.84c-0.28-1.87,0.71-0.93,1.53-1.99
			c-2.21,0.03-1.56-8.27-1.84-9.64c0.15,0,0.15,0,0.31,0C23.5,64.61,24.18,67.99,24.39,71.27z"/>
		<path class="st37" d="M250.62,68.52c0.1,0.17,0.33,0.44,0.61,0.92c1.36,2.28,2.31,4.79,3.98,6.89c-0.31,0.08-0.31,0.08-0.61,0.15
			c-1.62-1.96-4.11-3.24-6.43-3.06c0.23-1.45-2.67-2.43-1.53-3.67c0.56-0.09,0.87-0.6,0.92-0.61
			C248.59,68.82,249.45,68.27,250.62,68.52z"/>
		<path class="st18" d="M245.72,60.87c1.35,2.18,2.97,4.27,4.29,6.43c0.04,0.06,0.08,0.34,0.61,1.22c-1.17-0.25-2.03,0.3-3.06,0.61
			C245.89,66.58,241.43,60.25,245.72,60.87z"/>
		<path class="st38" d="M251.23,69.44c-0.28-0.48-0.51-0.74-0.61-0.92c-0.54-0.89-0.58-1.17-0.61-1.22
			C252.7,66.09,253.5,67.99,251.23,69.44z"/>
		<path class="st39" d="M244.19,58.42c-1.17,0.58-0.29-0.25-0.31-0.31C244.26,58.08,244.16,58.36,244.19,58.42z"/>
		<path class="st34" d="M15.52,42.19c0.29,0.7,0.89,1.66,1.22,2.6c0.45,6.33,4.07,10.9,5.82,16.68c-0.15,0-0.15,0-0.31,0
			c-0.01-0.05-0.28,0.16-0.46-0.92c-1.07,0.87-0.82,2.64-0.77,3.98c-0.31-0.08-0.31-0.08-0.61-0.15c-0.25-5.2-4.32-9.67-5.2-14.69
			c-0.84-4.75,0.72-3.03,0.61-4.59c-0.46-1.53-0.46-1.53-0.92-3.06C15.21,42.12,15.21,42.12,15.52,42.19z"/>
		<path class="st21" d="M12.76,91.17c-0.6,0.02-1.24,0.03-1.84,0c-0.3-0.02-0.62,0.03-0.92,0c0.55-2.54,0.21-4.24,0.31-4.44
			c0.12-0.25,2.52,0.31,2.76-0.46C13.01,87.66,12.36,89.31,12.76,91.17z"/>
		<path class="st8" d="M5.72,95.15c1.43,0,2.86,0,4.29,0c0.11,1.31,0.2,2.73,0.61,3.98c0.21,1.68-0.31,2.33-0.31,2.45
			c-2.01-0.22-2.91,0.29-3.06,0.31c-0.84,0.1-1.6,0.17-2.45,0.31c-1.38-3.52-1.38-3.52-2.76-7.04C3.27,95.16,4.49,95.15,5.72,95.15z
			"/>
		<path class="st40" d="M15.21,95.15c0.17,0.2,1.79,4.79,1.84,5.05c0.25,1.35-0.67,0.9-0.61,1.53c0.09,0.98,2.37,2.95-0.31,3.52
			c-1.3-0.04-0.19,1.38-0.31,2.14c-0.93-1.44-0.52-1.97-0.77-2.14c-0.84-0.07-1.78,0.11-2.6,0c-0.3-0.04-0.62,0.05-0.92,0
			c-0.75-1.18-1.21-2.23-1.22-3.67c0-0.12,0.51-0.76,0.31-2.45c0.6,1.83,0.05,2.39,2.45,2.14c2.67-0.28,1.58-1.45,0.92-6.12
			C14.6,95.15,14.6,95.15,15.21,95.15z"/>
		<path class="st34" d="M12.76,95.15c0.15,3.06,0.15,3.06,0.31,6.12c-2.4,0.25-1.85-0.32-2.45-2.14c-0.41-1.25-0.5-2.67-0.61-3.98
			C11.38,95.15,11.38,95.15,12.76,95.15z"/>
		<path class="st41" d="M13.98,95.15c0.66,4.67,1.75,5.84-0.92,6.12c-0.15-3.06-0.15-3.06-0.31-6.12
			C13.37,95.15,13.37,95.15,13.98,95.15z"/>
		<path class="st4" d="M190.77,258.62c2.93-0.26-1.61,1.42-0.15,3.52C187.86,263.13,189.51,258.73,190.77,258.62z"/>
		<path class="st7" d="M2.96,175.66c-0.35,1.2-0.03,3.27-2.45,5.36c0.46,1.85-1.08,3.99-0.61,8.27c0.35,3.17,3.88,8.03,2.76,24.18
			c-0.02,0.25-0.61,0.12-0.61,0.15c-1.71-9.04-2.65-18.23-5.2-27.09c-0.05-4.11,3.23-5.12,3.67-7.96c0.72,0.96,0.73-0.53,0.92-1.38
			C2.54,178.06,1.52,175.79,2.96,175.66z"/>
		<path class="st33" d="M10.31,210.25c0.34,2.67-1.4-0.6-1.53-1.07c-0.66-2.37,0.03-8.62-0.31-11.33c-0.29-2.33-2.84-5.63-1.22-8.11
			c0.53,1.64,1.89,3.6,2.14,5.36c0.41,2.89-0.4,8.9,0,11.94C9.41,207.21,10.05,208.2,10.31,210.25z"/>
		<path class="st28" d="M46.74,243.62c0.05,0.06,0.71,1.36,0.46,1.53c-1.66,0.05-5.79,4.27-5.36,0.15c0.2-1.94,2.89-3.35,3.06-3.52
			C45.19,243.16,46.62,243.46,46.74,243.62z"/>
		<path class="st17" d="M10.31,101.58c0.01,1.44,0.47,2.49,1.22,3.67c-2.47-0.38-4.45-0.26-4.29-3.37
			C7.4,101.87,8.3,101.36,10.31,101.58z"/>
		<path class="st34" d="M16.13,105.25c1.65-0.2,2.28,0.28,2.45,0.31c0.97,5.46,2.32,10.79,1.84,16.38c-0.4,1.27-1.11,2.47-1.22,3.83
			c-1.53-0.9-0.04-3.44-0.31-8.72c-0.05-1.08-1.23-3.63,0-3.98c-1.24,0.01-0.58-1.85-3.06-5.66
			C15.94,106.64,14.83,105.22,16.13,105.25z"/>
		<path class="st34" d="M17.81,132.8c0.65,4.06-0.49,5.4-0.46,2.6C17.35,135.27,17.73,134.17,17.81,132.8z"/>
		<path class="st34" d="M17.81,130.66c0.25,0.14,0.25,1.41,0,1.53C17,132.6,17.43,130.44,17.81,130.66z"/>
		<path class="st34" d="M27.76,147.5c-0.73-2.91,1.08-1.17,0.61,0.15C28.26,147.96,28.14,147.64,27.76,147.5z"/>
	</g>
	<g>
		<g>
			<path class="st42" d="M233.17,32.7c-0.71-0.82-4.54-4.41-5.36-4.59c-4.13-0.31-4.13-0.31-8.27-0.61
				c-1.86,1.61-3.75,0.36-5.66,0.31c-3.51-1.67-7.84-2.05-11.33-2.76c-0.14-0.03-1.07-0.99-2.6-1.22c-5.5-0.84-8.2,1.09-13.47,2.45
				c-5.55-0.89-11.02-1.51-16.84-1.53c-5.6-3.68-8.07-2.8-14.08-3.37c-3.35,2.69-9.79,2.56-13.16,5.2
				c-2.98,0.02-5.56-0.25-8.42-0.61c7.88,0.44,19.84-5.15,22.19-5.51c8.26-1.27,14.66,5.5,22.96,3.37c2.6,0.77,2.6,0.77,5.2,1.53
				c4.86-0.98,8.76-2.89,14.08-3.06c5.59,2.36,11.51,4.27,17.45,4.59c1.28,1.44,3.44-1.24,5.82-0.92c0.14,0.02,2.19,1.51,2.45,1.53
				c0.46,0.04,4.37-0.66,4.59-0.61C229.1,26.97,233.65,31.84,233.17,32.7z"/>
		</g>
		<path class="st43" d="M245.42,69.74c-1.07,0.92-1.07,0.92-2.14,1.84c-0.13-2.02-0.46-3.86-0.61-5.82
			C243.54,66.9,243.88,69.19,245.42,69.74z"/>
		<g>
			<path class="st44" d="M110.72,25.05c1.46,0.37,2.86,1.18,3.21,0.61c0.42,1.25,0.43,0.09,1.07-0.92c0.85-1.33,0.19-1.52,0.77-1.84
				c0.58-0.32,3.87,0.12,3.83-1.22c0.89,0.69,2.38,0.02,3.06,0.31c0.08,0.04,0.43,0.9,1.38,1.22c2.6,0.9,5.31,1.09,5.05,1.84
				c-3.39-0.68-4.81-0.71-8.11-2.45c-2.85,1.8-5.14,0.11-6.28,4.13c-8.63-1.95-17.6-3.47-26.48-4.74c-2.22,0.89-4.33,1.31-5.82,3.37
				c-9.98,0.39-19.79-1.46-29.69,0c-10.38-2.72-18.84,0.99-28.47,1.84c-1.02,0.09-4.06-2.31-12.25,1.84
				c-0.64,0.07-0.72-0.62-0.77-0.61c7.5-4.53,10.46-2.14,13.32-2.14c1.69,0,14.18-2.62,17.45-3.37c6.35,1.36,12.87,1.53,19.29,0.61
				c2.93,0.67,19.63,0.96,20.82,0.61c0.35-0.1,1.63-1.88,2.14-2.14C88.72,19.71,105.23,23.66,110.72,25.05z"/>
			<path class="st45" d="M10.92,28.42c-4.92,4.07,10.4,7.62,8.27,20.66c2.93,3.01,8.58,17.15,7.35,20.2
				c-0.21,0.51-1.68,1.53-2.14,1.99c-0.21-3.28-0.89-6.66-1.84-9.8c-1.75-5.78-5.37-10.36-5.82-16.68c-0.33-0.95-0.93-1.9-1.22-2.6
				C11.1,31.69,4.06,35.48,10,28.42C11.14,28.28,10.88,28.42,10.92,28.42z"/>
			<path class="st46" d="M8.78,237.81c-0.72,0.16-1.37,0.47-2.14,0.61c0.38-0.85-2.53-0.4-3.37-2.3c-1.52-3.45,1.81-7.15,4.29-9.34
				C6.13,232.13,1.54,233.44,8.78,237.81z"/>
			<g>
				<path class="st47" d="M202.56,25.05c0.16,2.71,8.76,2.68,11.33,2.76c1.92,0.06,3.8,1.3,5.66-0.31c4.13,0.31,4.13,0.31,8.27,0.61
					c0.81,0.18,4.65,3.77,5.36,4.59c0.19,0.22,1.18,0.79,1.22,1.07c-1.83,4.47-0.04,8.71,0,13.32c0,0.35-1.95,2.7,0.61,6.58
					c1.69,2.56,3.8,2.78,6.43,3.21c0.41,0.07,0.91-1.23,2.14,0.61c-2.49,3.92-1.11,5.84-0.92,8.27c0.15,1.96,0.48,3.8,0.61,5.82
					c0.09,1.4-0.24,2.13,0.61,3.06c-0.45,0.21-1.32,0.27-1.38,0.31c-0.53,0.38-0.7,1.28-1.07,1.84c-2.69,4.03-0.28,3.45,2.45,9.49
					c0.66,2.7-3.13,15.09,1.53,21.28c-1.08,2.35-0.73,11.36-0.31,13.78c1.22,6.97,5.53,5.33,5.51,15c0,0.06-0.61,0.86-0.61,0.92
					c-0.04,1.61,0.47,2.88,0.31,4.29c-1.58,13.19-8.92,9.26-4.59,23.27c-3.03,4.18-1.47,6.67-1.53,7.04
					c-0.19,1.11-3.06,3.2-2.14,6.58c-2.68,1.98-3.75,3.77-3.37,7.19c0.51,4.59,4.24,1.64,7.04,9.18c0.17,8.85,3.91,11.72,3.06,24.49
					c-0.32,1.27-7.55,9.07-7.04,11.63c-0.13,0.18-3.43,0.97-3.98,1.07c-0.08,0.01-0.1-0.26-1.53,0c-2.13,0.38-4.3,0.56-6.43,0.92
					c-1.07,0.15-1.07,0.15-2.14,0.31c-9.75-0.48-18.47,2.78-23.57,3.37c-2.27-0.79-4.91,0.01-7.19-0.31
					c-1.03-0.14-1.15-0.9-1.22-0.92c-3.1-0.63-3.48-1.17-3.67-1.22c-0.32-0.08-1.89,0.06-2.14,0c-0.24-0.06-3.22-1.53-4.59-1.84
					c-2.42-0.53-2.91,0.03-3.06,0c-0.25-0.05-0.05-0.56-0.31-0.61c-1.81-0.36-2.91,0.03-3.06,0c-1.46-0.25-5.4-1.99-6.89-1.22
					c-3.01-0.43-5.44-0.85-8.57-0.61c-5.65,0.44-10.69,3.64-16.07,5.2c-7.26,2.11-14.78,3.43-21.89,6.12
					c-4.82-3.98-4.82-3.98-9.64-7.96c-1.84-0.86-1.88,0.29-1.99,0.31c-3.61,0.64-7.11,2.4-7.5,2.45c-2.42,0.28-7.88-2.06-11.17-2.45
					c-2.8-0.33-4.92-0.05-7.65,0c-0.39,0.01-2.71,0.61-3.06,0.61c-1.86,0-3.7-0.27-5.51-0.31c-8.32-0.16-17.17-1.64-22.35-1.53
					c-2.96,0.06-5.43,0.88-8.27,0.92c-0.82,0.01-1.63-0.02-2.45,0c-1.95,0.05-4.08-0.4-6.12-0.31c-16.11,0.72-16.79,1.72-30.92,4.9
					c-7.24-4.37-2.65-5.68-1.22-11.02c0.61-0.54,1.18-1.04,1.84-1.53c5.8-4.38,2.91,1.73,4.59-13.01
					c-4.95-8.32-0.79-12.65-2.45-19.59c-0.83-3.49-4.55-5.26-3.67-10.41c0.09-0.56,4.26-9.94,4.59-10.41
					c0.99-1.41,3.34-2.76,4.9-4.44c0.11-0.11,0.22-0.22,0.31-0.31c0.74,0.13,0.88-0.58,0.92-0.61c1.63-1.47,7.3-4.64,9.8-6.12
					c0.04-0.02,0.28,0.07,0.92-0.31c0.92-0.54,1.87-0.95,2.76-1.53c0.63-0.41,2.82-1.3,3.06-1.99
					c-2.04-13.07-1.44-13.31-13.47-18.06c0.96-7.45-3.23-13.95,1.22-16.22c0.15-4.9,0.15-4.9,0.31-9.8
					c-0.79-1.66-1.91-5.03-3.06-6.28c3.24-2.9-3.59-8.73-3.98-11.79c-0.19-1.5,0.5-2.66,0.61-4.13c0.09-1.16,0.77-1.89,0.61-3.52
					c-0.31-3.34-3.45-4.58,0.61-8.72c0.03-0.09-0.03-0.21,0-0.31c0.95-0.87,3.38-3.33,3.67-4.29c0.37,0.07,0.63-0.13,0.92-0.31
					c0.82-0.49,1.2-1.2,1.84-1.84c0.46-0.46,1.94-1.48,2.14-1.99c1.23-3.05-4.42-17.19-7.35-20.2C21.32,36.03,6,32.48,10.92,28.42
					c0.1-0.02,0.21,0.02,0.31,0c0.05-0.01,0.13,0.68,0.77,0.61c8.18-4.15,11.23-1.75,12.25-1.84c9.62-0.85,18.09-4.56,28.47-1.84
					c9.9-1.46,19.71,0.39,29.69,0c1.49-2.05,3.59-2.47,5.82-3.37c8.88,1.27,17.85,2.8,26.48,4.74c1.14-4.02,3.42-2.34,6.28-4.13
					c3.3,1.74,4.72,1.77,8.11,2.45c0.29,0.06,0.63-0.06,0.92,0c1.28,0.26,2.71,0.76,3.98,0.92c2.86,0.36,5.43,0.63,8.42,0.61
					c3.38-2.65,9.81-2.52,13.16-5.2c6.01,0.57,8.48-0.31,14.08,3.37c5.82,0.02,11.29,0.64,16.84,1.53
					c5.27-1.36,7.97-3.29,13.47-2.45C201.49,24.06,202.42,25.02,202.56,25.05z"/>
				<g>
					<path class="st48" d="M125.41,241.17c-3.17,1.01-9.03-5.11-11.63-7.65c0.11-0.02,0.15-1.17,1.99-0.31
						C120.59,237.19,120.59,237.19,125.41,241.17z"/>
					<path class="st45" d="M18.58,166.48c-0.04,0.04-0.17,0.74-0.92,0.61C17.94,166.78,17.95,166.31,18.58,166.48z"/>
					<g>
						<path class="st49" d="M234.7,47.4c-0.14,0.2-0.6,1.41-0.61,1.53c-0.31,4.34,3.3,6.38,6.73,7.35c0.04,0.01,0.58,0.47,0.61,0.61
							c-2.63-0.44-4.74-0.66-6.43-3.21c-2.56-3.88-0.61-6.23-0.61-6.58C234.55,47.24,234.55,47.24,234.7,47.4z"/>
						<path class="st50" d="M204.09,236.58c-0.78,0.09-1.65-0.03-2.45,0c-10.67,0.47-19.29-4.63-29.69-6.12
							c1.48-0.77,5.43,0.97,6.89,1.22c0.15,0.03,1.25-0.36,3.06,0c0.25,0.05,0.05,0.56,0.31,0.61c0.15,0.03,0.64-0.53,3.06,0
							c1.37,0.3,4.35,1.78,4.59,1.84c0.25,0.06,1.82-0.08,2.14,0c0.2,0.05,0.57,0.59,3.67,1.22c0.07,0.02,0.2,0.77,1.22,0.92
							C199.18,236.59,201.82,235.79,204.09,236.58z"/>
						<path class="st42" d="M169.19,152.4c-0.86,8.95-6.17,11.34-14.39,11.63c-20,0.7-26.6-15.2-18.21-16.53
							c6.65-1.06,5.92,9.76,19.29,6.73c6.39-1.45,3.65-8.94,1.53-10.1c-2.71-1.48-13.53,1.3-11.79-5.97c1-4.17,8.33-1.86,11.63-7.04
							c3.5-5.5,1.73-16.42-5.05-12.4c-2.62,1.55-4.96,10.77-11.33,9.18c-0.63-0.16-2.07-1.66-2.3-2.3
							c-2.5-7,13.31-23.75,24.03-15.15c0.79,0.63,5.8,7.31,5.97,7.81c1.29,3.78-3.05,13.85-4.29,18.06
							C168.11,139.52,169.64,147.69,169.19,152.4z"/>
						<g>
							<path class="st42" d="M109.65,106.17c10.92-0.69,16.58,11.1,15.46,20.66c-0.99,8.45-11.43,19.64-15.92,26.94
								c5.17,0.73,21.15-0.86,19.59,7.96c-1.21,6.85-9.68,1.68-16.07,1.38c-7.16-0.34-16.79,4.05-18.21-3.21
								c-0.43-2.18,0.22-5.05,1.22-7.04c1.08-2.13,27.9-30.52,17.6-35.05c-6.69-2.94-10.89,9.6-14.69,10.41
								c-3.76,0.8-6.69-2.36-6.28-5.97c0.14-1.24,7.42-11.61,8.72-12.7C103.07,107.85,107.09,106.33,109.65,106.17z"/>
							<path class="st42" d="M72.91,103.42c2.73-0.33,5.9,1.09,6.28,4.13c0.24,1.88-1.77,5.56-2.14,9.49
								c-0.59,6.23,1,25.93,0.31,35.2c0.79,1.78,13.54-2.53,12.25,5.51c-1.17,7.25-20.8,4.57-29.85,6.58
								c-5.87-1.16-7.48-8.41-2.45-10.41c2.42-0.96,10.54-0.87,10.87-1.68c-0.75-10.33-1.12-20.67-2.76-30.92
								c-3.67,1.5-10.51-0.05-9.49-5.2C56.27,114.37,70.81,103.67,72.91,103.42z"/>
						</g>
						<path class="st42" d="M154.44,189.13c2.17-0.42,2.76,1.45,2.6,3.21c-0.13,1.38-7.94,25.3-8.88,26.33
							c-4.97,5.44-5.31-11.81-6.89-13.93c-2.16,5.7-3.19,16.5-7.04,15c-1.26-0.49-6.38-19.97-9.64-25.26c0.85-1.27,3.42-2,4.59-0.92
							c0.74,0.68,5.4,14.82,6.28,17.3c1.91-2.74,2.87-17.74,5.51-18.06c3.57-0.43,3.31,10.77,5.51,16.22
							C148.02,206.27,152.33,189.54,154.44,189.13z"/>
						<path class="st42" d="M111.98,192.5c9.59-0.33,10.76,7.89,6.73,7.65c-1.05-0.06-2.93-4.07-8.27-3.06
							c-2.13,0.4-3.92,3.14-2.91,5.05c1.13,2.13,15.87,4.93,11.33,12.55c-3.45,5.78-18.59,5.02-17.14,0c0.75-2.58,5.13,0,9.64-1.07
							c11.18-2.65-13.43-7.04-10.56-15.77C101.69,195.19,109.41,192.59,111.98,192.5z"/>
						<path class="st42" d="M86.11,191.27c5.07-0.62,11.73,2.82,11.79,3.83c0.01,0.15-1.53,2.56-1.68,2.6
							c-0.62,0.16-9.29-4.67-12.09-0.77c-3.73,5.21,9.32,8.77,10.71,12.25c1.39,3.45-1.2,7-4.44,8.11
							c-4.51,1.55-15.61,0.33-13.01-4.44c0.94-1.73,9.1,3.14,12.7-0.77c2.76-2.99-7.28-4.62-10.26-9.64
							C76.65,197.08,81.25,191.87,86.11,191.27z"/>
						<path class="st51" d="M154.8,164.03c8.21-0.29,13.53-2.69,14.39-11.63c8.39-3.6,11.67,12.16,4.74,11.33
							C170.46,170.83,155.08,175.24,154.8,164.03z"/>
						<path class="st51" d="M213.88,27.8c-2.56-0.08-11.17-0.04-11.33-2.76C206.05,25.76,210.38,26.13,213.88,27.8z"/>
						<g>
							<path class="st42" d="M201.79,103.72c3.17-0.48,5.76,1.63,6.28,4.74c0.6,3.65-0.24,30.62-0.31,37.65
								c13.93-0.74,12.49,12.92-0.92,8.88c-0.47,0.9,2.48,20.42-6.89,14.23c-4.79-3.16-1.34-13.43-2.14-14.39
								c-5.65-1.91-27.04-2.68-23.72-12.7c0.24-0.73,7.15-9.85,8.88-12.55C186.12,124.67,197.13,104.42,201.79,103.72z"/>
							<path class="st47" d="M199.04,120.87c0.32-0.01,0.62-0.09,0.77,0.15c-0.34,8.1-0.6,16.16-1.84,24.18
								c-0.32,0.68-9.96-0.92-10.1-1.84C189.29,140.69,197.47,120.91,199.04,120.87z"/>
						</g>
						<g>
							
								<linearGradient id="SVGID_00000029011556021865558580000008250552624102766241_" gradientUnits="userSpaceOnUse" x1="282.1183" y1="224.3318" x2="327.4324" y2="224.4767" gradientTransform="matrix(0.4999 0 0 0.4999 -32.4701 -44.5726)">
								<stop  offset="0" style="stop-color:#802418"/>
								<stop  offset="1" style="stop-color:#C84327"/>
							</linearGradient>
							<path style="fill:url(#SVGID_00000029011556021865558580000008250552624102766241_);" d="M129.7,81.07
								c-0.23,0.06-1.44,1.28-4.44,1.53c-15.44,1.28-23.81-12.51-17.3-26.02c1.3,1.39,5.47,3.53,7.35,3.98
								c2,0.48,3.77,0.64,5.82,0.31c-1.1,3.68,4.45,1.85,6.73,0.92c1.48-0.6,1.36-0.71,2.45-1.53c3.55-2.68,3.47-3.9,5.51-7.65
								C136.02,62.46,133.12,71.95,129.7,81.07z"/>
							<path class="st53" d="M138.27,51.68c1.38,1.38,1.38,1.38,2.76,2.76c3.62,4.52,5.02,7.65,3.67,13.47
								c-0.22-6.08-2.72-12.97-8.88-15.31c-2.04,3.75-1.96,4.97-5.51,7.65c-0.99-1.84-0.99-1.84-1.99-3.67
								c-0.43-0.14-1.33,1.3-1.68,1.53c-0.62,0.39-1.49,0.88-2.14,1.22c-0.19,0-0.58,0.07-0.61-0.15c-0.13-0.99,9.36-6.1,9.8-16.68
								c0.51,2.23,0.84,3.92,0.31,6.28C136.02,49.6,136.74,50.36,138.27,51.68z"/>
							<g>
								
									<linearGradient id="SVGID_00000031192667729994647310000010233022621168516542_" gradientUnits="userSpaceOnUse" x1="325.3138" y1="179.8621" x2="283.5944" y2="189.7051" gradientTransform="matrix(0.4999 0 0 0.4999 -32.4701 -44.5726)">
									<stop  offset="0" style="stop-color:#EF4D24"/>
									<stop  offset="1" style="stop-color:#742013"/>
								</linearGradient>
								<path style="fill:url(#SVGID_00000031192667729994647310000010233022621168516542_);" d="M133.68,42.5
									c-0.43,10.59-9.93,15.69-9.8,16.68c0.03,0.22,0.42,0.16,0.61,0.15c-0.72,0.37-2.86,1.45-3.37,1.53
									c-2.05,0.33-3.81,0.17-5.82-0.31c0.5-2.44-4.6-2.79-7.04-5.97c-2.84-3.7-1.81-9.42-3.37-5.05
									C103.89,34.4,130.39,27.98,133.68,42.5z"/>
								<path class="st55" d="M115.31,60.56c-1.88-0.45-6.04-2.59-7.35-3.98c-1.56-1.67-2.91-4.77-3.06-7.04
									c1.56-4.37,0.53,1.36,3.37,5.05C110.72,57.77,115.81,58.12,115.31,60.56z"/>
							</g>
							<g>
								
									<linearGradient id="SVGID_00000154399126558434238210000008022816200203687319_" gradientUnits="userSpaceOnUse" x1="343.9509" y1="215.6713" x2="328.7867" y2="226.0408" gradientTransform="matrix(0.4999 0 0 0.4999 -32.4701 -44.5726)">
									<stop  offset="0" style="stop-color:#F7A890"/>
									<stop  offset="1" style="stop-color:#ED6953"/>
								</linearGradient>
								<path style="fill:url(#SVGID_00000154399126558434238210000008022816200203687319_);" d="M144.7,67.91
									c-1.27,5.49-5,8.87-9.8,11.33c-0.94,0.06-1.45-2.71-1.68-2.76c-0.21-0.04-1.39,3.61-1.68,3.98
									c-0.78,0.28-0.95,0.36-1.84,0.61c3.42-9.12,6.32-18.61,6.12-28.47C141.98,54.94,144.48,61.83,144.7,67.91z"/>
								<path class="st57" d="M134.9,79.23c-2.35,1.2-2.41,0.87-3.37,1.22c0.29-0.37,1.47-4.02,1.68-3.98
									C133.45,76.53,133.96,79.3,134.9,79.23z"/>
								<path class="st58" d="M141.03,54.44c-1.38-1.38-1.38-1.38-2.76-2.76C139.52,52.76,139.97,53.12,141.03,54.44z"/>
							</g>
							<path class="st59" d="M126.64,58.11c0.35,2.27-0.05,4.12,1.22,3.67c-2.28,0.94-7.84,2.76-6.73-0.92
								c0.51-0.08,2.65-1.16,3.37-1.53C125.15,58.99,126.02,58.5,126.64,58.11z"/>
							<path class="st60" d="M130.31,60.25c-1.09,0.82-0.97,0.93-2.45,1.53c-1.27,0.45-0.88-1.4-1.22-3.67
								c0.36-0.23,1.25-1.68,1.68-1.53C129.32,58.42,129.32,58.42,130.31,60.25z"/>
						</g>
						<g>
							<path class="st42" d="M198.18,192.81c14.06-1.81,18.66,13.11,4.44,13.01c1.39,1.37,12.73,13.43,7.19,14.23
								c-1.88,0.27-9.98-12.15-12.86-13.16c-1.05,3.69,2.29,17.78-4.13,13.32c-0.46-7.73,1.31-15.93-1.84-23.27
								C192.68,195.01,195.64,193.13,198.18,192.81z"/>
							<path class="st47" d="M198.79,197.4c1.83-0.14,8.44,1.03,7.5,3.52c-0.77,2.06-4.1-1.5-9.95,2.6
								C196.2,198.3,195.09,197.68,198.79,197.4z"/>
						</g>
						<g>
							<path class="st42" d="M174.28,193.42c11.08-0.66,15.95,18.24,5.82,25.41c-14.2,10.04-25.96-11.86-14.69-21.43
								C167.23,195.84,171.95,193.56,174.28,193.42z"/>
							<path class="st47" d="M172.75,198.32c10.78-1.47,10.62,15.96,2.14,18.37C164.61,219.6,160.68,199.97,172.75,198.32z"/>
						</g>
						<g>
							<path class="st42" d="M222.92,194.95c3.55-0.47,12.39,3.49,14.23,6.58c5.13,8.57-9.57,21.08-17.91,20.36
								c-0.07-3.99-0.52-22.55-0.15-24.03C219.38,196.67,221.8,195.1,222.92,194.95z"/>
							<path class="st47" d="M223.83,200.15c16.29,2.16,9.58,10.97,0,16.84C223.83,208.57,223.83,208.57,223.83,200.15z"/>
						</g>
						<g>
							<path class="st42" d="M33.83,187.6c17.47-1.85,18.59,14.85-1.68,15.46c-0.64,2.63,2.02,15.11-3.21,13.32
								c-2.46-0.84,0.25-11.05-1.99-16.07C30.62,195.3,25.28,188.51,33.83,187.6z"/>
							<path class="st47" d="M32.91,192.81c14.8-0.73,10.95,4.37-0.31,5.82C32.76,195.71,32.76,195.71,32.91,192.81z"/>
						</g>
						<g>
							<path class="st42" d="M60.69,190.36c2.55-0.57,2.66,4.41,4.13,8.11c1.16,2.9,6.76,14.25,5.82,16.53
								c-4.32,1.31-3.57-1.86-4.74-5.05c-6.12,0-6.12,0-12.25,0c-0.98,0.82-2.36,4.79-3.06,5.2c-0.72,0.42-3.34,0.5-3.21-1.38
								C47.46,212.43,59.37,190.65,60.69,190.36z"/>
							<path class="st47" d="M60.38,198.93c1.61,3.6,1.61,3.6,3.21,7.19C54.16,206.55,55.09,207.51,60.38,198.93z"/>
						</g>
					</g>
				</g>
			</g>
		</g>
	</g>
</g>
</svg>
